<svg width="13" height="13" viewBox="0 0 13 13" fill="none" xmlns="http://www.w3.org/2000/svg">
<path d="M2.92132 4.37444H0.15904V12.6696H2.92132V4.37444ZM3.0971 1.81306C3.08873 1.00112 2.50279 0.381696 1.55692 0.381696C0.61942 0.381696 0 1.00112 0 1.81306C0 2.60826 0.594308 3.24442 1.52344 3.24442H1.54018C2.50279 3.24442 3.10547 2.60826 3.0971 1.81306ZM12.8571 7.91518C12.8571 5.37054 11.5011 4.18192 9.68471 4.18192C8.19475 4.18192 7.54185 5.0106 7.18192 5.5798H7.19866V4.37444H4.44475C4.44475 4.37444 4.47824 5.1529 4.44475 12.6696H7.19866V8.04074C7.19866 7.78962 7.22377 7.54688 7.29074 7.36272C7.49163 6.86886 7.94364 6.35826 8.70536 6.35826C9.70145 6.35826 10.1032 7.11998 10.1032 8.23326V12.6696H12.8571V7.91518Z" fill="#FFFDFD"/>
</svg>
