<svg width="11" height="11" viewBox="0 0 11 11" fill="none" xmlns="http://www.w3.org/2000/svg">
<path d="M11 8.6875C11 8.82812 10.974 9.01302 10.9219 9.24219C10.8698 9.46615 10.8151 9.64323 10.7578 9.77344C10.6484 10.0339 10.3307 10.3099 9.80469 10.6016C9.3151 10.8672 8.83073 11 8.35156 11C8.21094 11 8.07292 10.9922 7.9375 10.9766C7.80729 10.9557 7.65885 10.9219 7.49219 10.875C7.32552 10.8281 7.20052 10.7917 7.11719 10.7656C7.03906 10.7344 6.89583 10.6797 6.6875 10.6016C6.47917 10.5234 6.35156 10.4766 6.30469 10.4609C5.79427 10.2786 5.33854 10.0625 4.9375 9.8125C4.27083 9.40104 3.58073 8.84115 2.86719 8.13281C2.15885 7.41927 1.59896 6.72917 1.1875 6.0625C0.9375 5.66146 0.721354 5.20573 0.539063 4.69531C0.523438 4.64844 0.476563 4.52083 0.398438 4.3125C0.320313 4.10417 0.265625 3.96094 0.234375 3.88281C0.208333 3.79948 0.171875 3.67448 0.125 3.50781C0.078125 3.34115 0.0442708 3.19271 0.0234375 3.0625C0.0078125 2.92708 0 2.78906 0 2.64844C0 2.16927 0.132813 1.6849 0.398438 1.19531C0.690104 0.66927 0.966146 0.351562 1.22656 0.242187C1.35677 0.184895 1.53385 0.130208 1.75781 0.0781245C1.98698 0.0260411 2.17188 -5.96046e-07 2.3125 -5.96046e-07C2.38542 -5.96046e-07 2.4401 0.00781194 2.47656 0.023437C2.57031 0.0546872 2.70833 0.252604 2.89063 0.617187C2.94792 0.716145 3.02604 0.85677 3.125 1.03906C3.22396 1.22135 3.3151 1.38802 3.39844 1.53906C3.48177 1.6849 3.5625 1.82292 3.64063 1.95312C3.65625 1.97396 3.70052 2.03906 3.77344 2.14844C3.85156 2.25781 3.90885 2.35156 3.94531 2.42969C3.98177 2.5026 4 2.57552 4 2.64844C4 2.7526 3.92448 2.88281 3.77344 3.03906C3.6276 3.19531 3.46615 3.33854 3.28906 3.46875C3.11719 3.59896 2.95573 3.73698 2.80469 3.88281C2.65885 4.02865 2.58594 4.14844 2.58594 4.24219C2.58594 4.28906 2.59896 4.34896 2.625 4.42187C2.65104 4.48958 2.67188 4.54167 2.6875 4.57812C2.70833 4.61458 2.74479 4.67708 2.79688 4.76562C2.85417 4.85417 2.88542 4.90365 2.89063 4.91406C3.28646 5.6276 3.73958 6.23958 4.25 6.75C4.76042 7.26042 5.3724 7.71354 6.08594 8.10937C6.09635 8.11458 6.14583 8.14583 6.23438 8.20312C6.32292 8.25521 6.38542 8.29167 6.42188 8.3125C6.45833 8.32812 6.51042 8.34896 6.57813 8.375C6.65104 8.40104 6.71094 8.41406 6.75781 8.41406C6.85156 8.41406 6.97135 8.34115 7.11719 8.19531C7.26302 8.04427 7.40104 7.88281 7.53125 7.71094C7.66146 7.53385 7.80469 7.3724 7.96094 7.22656C8.11719 7.07552 8.2474 7 8.35156 7C8.42448 7 8.4974 7.01823 8.57031 7.05469C8.64844 7.09115 8.74219 7.14844 8.85156 7.22656C8.96094 7.29948 9.02604 7.34375 9.04688 7.35937C9.17708 7.4375 9.3151 7.51823 9.46094 7.60156C9.61198 7.6849 9.77865 7.77604 9.96094 7.875C10.1432 7.97396 10.2839 8.05208 10.3828 8.10937C10.7474 8.29167 10.9453 8.42969 10.9766 8.52344C10.9922 8.5599 11 8.61458 11 8.6875Z" fill="#F2C94C"/>
</svg>
