<svg width="12" height="12" viewBox="0 0 12 12" fill="none" xmlns="http://www.w3.org/2000/svg">
<path d="M11.7857 9.52232C11.7857 9.67299 11.7578 9.87109 11.702 10.1166C11.6462 10.3566 11.5876 10.5463 11.5262 10.6858C11.409 10.9648 11.0686 11.2606 10.505 11.5731C9.98047 11.8577 9.4615 12 8.9481 12C8.79743 12 8.64955 11.9916 8.50446 11.9749C8.36496 11.9526 8.20592 11.9163 8.02734 11.8661C7.84877 11.8158 7.71484 11.7768 7.62556 11.7489C7.54185 11.7154 7.38839 11.6568 7.16518 11.5731C6.94196 11.4894 6.80525 11.4392 6.75502 11.4224C6.20815 11.2271 5.71987 10.9955 5.29018 10.7277C4.57589 10.2868 3.8365 9.68694 3.07199 8.92801C2.31306 8.1635 1.71317 7.42411 1.27232 6.70982C1.00446 6.28013 0.772879 5.79185 0.577567 5.24498C0.560826 5.19475 0.510603 5.05804 0.426897 4.83482C0.343192 4.61161 0.284598 4.45815 0.251116 4.37444C0.223214 4.28516 0.184152 4.15123 0.133929 3.97266C0.0837054 3.79408 0.047433 3.63504 0.0251116 3.49554C0.00837054 3.35045 0 3.20257 0 3.0519C0 2.5385 0.142299 2.01953 0.426897 1.49498C0.739397 0.931361 1.03516 0.590959 1.31417 0.473772C1.45368 0.412388 1.64342 0.353794 1.88337 0.297991C2.12891 0.242187 2.32701 0.214285 2.47768 0.214285C2.5558 0.214285 2.6144 0.222656 2.65346 0.239397C2.75391 0.272879 2.90179 0.484933 3.0971 0.875558C3.15848 0.981584 3.24219 1.13225 3.34821 1.32757C3.45424 1.52288 3.5519 1.70145 3.64118 1.86328C3.73047 2.01953 3.81696 2.16741 3.90067 2.30692C3.91741 2.32924 3.96484 2.399 4.04297 2.51618C4.12667 2.63337 4.18806 2.73382 4.22712 2.81752C4.26618 2.89565 4.28571 2.97377 4.28571 3.0519C4.28571 3.1635 4.2048 3.30301 4.04297 3.47042C3.88672 3.63783 3.71373 3.79129 3.524 3.9308C3.33984 4.07031 3.16685 4.21819 3.00502 4.37444C2.84877 4.53069 2.77065 4.65904 2.77065 4.75949C2.77065 4.80971 2.7846 4.87388 2.8125 4.95201C2.8404 5.02455 2.86272 5.08036 2.87946 5.11942C2.90179 5.15848 2.94085 5.22545 2.99665 5.32031C3.05804 5.41518 3.09152 5.46819 3.0971 5.47935C3.52121 6.24386 4.0067 6.89955 4.55357 7.44643C5.10045 7.9933 5.75614 8.47879 6.52065 8.9029C6.53181 8.90848 6.58482 8.94196 6.67969 9.00335C6.77455 9.05915 6.84152 9.09821 6.88058 9.12054C6.91964 9.13728 6.97545 9.1596 7.04799 9.1875C7.12612 9.2154 7.19029 9.22935 7.24051 9.22935C7.34096 9.22935 7.46931 9.15123 7.62556 8.99498C7.78181 8.83315 7.92969 8.66016 8.0692 8.476C8.20871 8.28627 8.36217 8.11328 8.52958 7.95703C8.69699 7.7952 8.8365 7.71429 8.9481 7.71429C9.02623 7.71429 9.10435 7.73382 9.18248 7.77288C9.26618 7.81194 9.36663 7.87333 9.48382 7.95703C9.601 8.03516 9.67076 8.08259 9.69308 8.09933C9.83259 8.18304 9.98047 8.26953 10.1367 8.35882C10.2985 8.4481 10.4771 8.54576 10.6724 8.65179C10.8677 8.75781 11.0184 8.84152 11.1244 8.9029C11.5151 9.09821 11.7271 9.24609 11.7606 9.34654C11.7773 9.3856 11.7857 9.4442 11.7857 9.52232Z" fill="#FFFCFC"/>
</svg>
