<svg width="20" height="13" viewBox="0 0 20 13" fill="none" xmlns="http://www.w3.org/2000/svg">
<path d="M12.0285 6.78516C12.0285 7.94587 11.7857 8.98103 11.3002 9.89062C10.8147 10.7946 10.1228 11.5006 9.22433 12.0084C8.32589 12.5218 7.29632 12.7785 6.1356 12.7785C5.30413 12.7785 4.50893 12.6166 3.75 12.293C2.99107 11.9693 2.33817 11.534 1.79129 10.9872C1.24442 10.4403 0.809152 9.78739 0.485491 9.02846C0.16183 8.26953 0 7.47433 0 6.64286C0 5.81138 0.16183 5.01618 0.485491 4.25725C0.809152 3.49833 1.24442 2.84542 1.79129 2.29855C2.33817 1.75167 2.99107 1.31641 3.75 0.992745C4.50893 0.669084 5.30413 0.507254 6.1356 0.507254C7.73159 0.507254 9.10156 1.04297 10.2455 2.1144L8.5798 3.71317C7.9269 3.08259 7.11217 2.7673 6.1356 2.7673C5.44922 2.7673 4.81306 2.94029 4.22712 3.28627C3.64676 3.63225 3.18638 4.10379 2.84598 4.70089C2.50558 5.29241 2.33538 5.93973 2.33538 6.64286C2.33538 7.34598 2.50558 7.99609 2.84598 8.59319C3.18638 9.18471 3.64676 9.65346 4.22712 9.99944C4.81306 10.3454 5.44922 10.5184 6.1356 10.5184C6.59877 10.5184 7.02288 10.4542 7.40792 10.3259C7.79855 10.1975 8.11942 10.0385 8.37054 9.84877C8.62165 9.65346 8.83929 9.43304 9.02344 9.1875C9.21317 8.94196 9.34989 8.71038 9.43359 8.49275C9.52288 8.27511 9.58426 8.06864 9.61775 7.87333H6.1356V5.76395H11.928C11.995 6.11551 12.0285 6.45591 12.0285 6.78516ZM19.2857 5.76395V7.52176H17.5363V9.27121H15.7785V7.52176H14.029V5.76395H15.7785V4.01451H17.5363V5.76395H19.2857Z" fill="#FFFDFD"/>
</svg>
