<svg width="13" height="14" viewBox="0 0 13 14" fill="none" xmlns="http://www.w3.org/2000/svg">
<path d="M12.8571 6.64286C12.8571 3.09375 9.97768 0.214285 6.42857 0.214285C2.87946 0.214285 0 3.09375 0 6.64286C0 9.27958 1.58203 11.5396 3.85045 12.5357C3.83371 12.0837 3.84208 11.5396 3.95926 11.0541C3.95926 11.0541 4.08482 10.5352 4.78795 7.55525C4.57868 7.14509 4.57868 6.53404 4.57868 6.53404C4.57868 5.5798 5.13114 4.8683 5.81752 4.8683C6.40346 4.8683 6.68806 5.31194 6.68806 5.83929C6.68806 6.42522 6.31138 7.30413 6.11886 8.11607C5.95982 8.80246 6.46205 9.35491 7.1317 9.35491C8.3538 9.35491 9.17411 7.78962 9.17411 5.93973C9.17411 4.52511 8.21987 3.47042 6.49554 3.47042C4.5452 3.47042 3.33147 4.9269 3.33147 6.55078C3.33147 7.11161 3.49888 7.50502 3.75837 7.81473C3.87556 7.95703 3.8923 8.00725 3.85045 8.17466C3.81696 8.29185 3.75 8.57645 3.71652 8.68527C3.67467 8.85268 3.54074 8.91127 3.39844 8.85268C2.50279 8.48437 2.08426 7.49665 2.08426 6.39174C2.08426 4.56696 3.62444 2.37388 6.67132 2.37388C9.13225 2.37388 10.7478 4.15681 10.7478 6.05692C10.7478 8.58482 9.34152 10.4682 7.274 10.4682C6.57924 10.4682 5.92634 10.0915 5.70871 9.66462C5.33203 11.1462 5.2567 11.4308 5.2567 11.4308C5.12277 11.9247 4.84654 12.4185 4.60379 12.8036C5.18973 12.9794 5.79241 13.0714 6.42857 13.0714C9.97768 13.0714 12.8571 10.192 12.8571 6.64286Z" fill="#FFFDFD"/>
</svg>
