<svg width="13" height="14" viewBox="0 0 13 14" fill="none" xmlns="http://www.w3.org/2000/svg">
<path d="M6.00167 10.8198C5.79241 11.029 5.45759 11.029 5.24833 10.8198L4.39453 9.96596C4.18527 9.7567 4.18527 9.42187 4.39453 9.21261L6.96429 6.64286L4.39453 4.0731C4.18527 3.86384 4.18527 3.52902 4.39453 3.31975L5.24833 2.46596C5.45759 2.2567 5.79241 2.2567 6.00167 2.46596L9.8019 6.26618C10.0112 6.47545 10.0112 6.81027 9.8019 7.01953L6.00167 10.8198ZM12.8571 6.64286C12.8571 3.09375 9.97768 0.214285 6.42857 0.214285C2.87946 0.214285 0 3.09375 0 6.64286C0 10.192 2.87946 13.0714 6.42857 13.0714C9.97768 13.0714 12.8571 10.192 12.8571 6.64286Z" fill="#F25252"/>
</svg>
