<svg width="8" height="12" viewBox="0 0 8 12" fill="none" xmlns="http://www.w3.org/2000/svg">
<path d="M5.41406 5.41406C5.80469 5.02344 6 4.55208 6 4C6 3.44792 5.80469 2.97656 5.41406 2.58594C5.02344 2.19531 4.55208 2 4 2C3.44792 2 2.97656 2.19531 2.58594 2.58594C2.19531 2.97656 2 3.44792 2 4C2 4.55208 2.19531 5.02344 2.58594 5.41406C2.97656 5.80469 3.44792 6 4 6C4.55208 6 5.02344 5.80469 5.41406 5.41406ZM8 4C8 4.56771 7.91406 5.03385 7.74219 5.39844L4.89844 11.4453C4.8151 11.6172 4.6901 11.7526 4.52344 11.8516C4.36198 11.9505 4.1875 12 4 12C3.8125 12 3.63542 11.9505 3.46875 11.8516C3.30729 11.7526 3.1875 11.6172 3.10938 11.4453L0.257813 5.39844C0.0859375 5.03385 0 4.56771 0 4C0 2.89583 0.390625 1.95312 1.17188 1.17187C1.95313 0.390624 2.89583 -5.96046e-07 4 -5.96046e-07C5.10417 -5.96046e-07 6.04688 0.390624 6.82813 1.17187C7.60938 1.95312 8 2.89583 8 4Z" fill="#F2C94C"/>
</svg>
