<svg width="14" height="15" viewBox="0 0 14 15" fill="none" xmlns="http://www.w3.org/2000/svg">
<path d="M13.5352 5.26172C13.8451 5.51693 14 5.85417 14 6.27344V13.4375C14 13.8021 13.8724 14.112 13.6172 14.3672C13.362 14.6224 13.0521 14.75 12.6875 14.75H1.3125C0.947917 14.75 0.638021 14.6224 0.382812 14.3672C0.127604 14.112 0 13.8021 0 13.4375V6.24609C0 5.84505 0.164062 5.50781 0.492188 5.23438C1.22135 4.63281 2.45182 3.64844 4.18359 2.28125C4.23828 2.22656 4.34766 2.13542 4.51172 2.00781C4.67578 1.86198 4.8125 1.74349 4.92188 1.65234C5.03125 1.5612 5.17708 1.45182 5.35938 1.32422C5.5599 1.19661 5.73307 1.09635 5.87891 1.02344C6.04297 0.950521 6.22526 0.886719 6.42578 0.832031C6.6263 0.777344 6.81771 0.75 7 0.75C7.18229 0.75 7.3737 0.777344 7.57422 0.832031C7.77474 0.886719 7.95703 0.950521 8.12109 1.02344C8.28516 1.09635 8.45833 1.20573 8.64062 1.35156C8.82292 1.47917 8.96875 1.58854 9.07812 1.67969C9.1875 1.7526 9.32422 1.86198 9.48828 2.00781C9.65234 2.13542 9.76172 2.22656 9.81641 2.28125C11.6393 3.72135 12.8789 4.71484 13.5352 5.26172ZM12.6875 13.2734V6.32812C12.6875 6.29167 12.6693 6.25521 12.6328 6.21875C11.1562 5.01562 9.94401 4.04036 8.99609 3.29297C8.97786 3.29297 8.84115 3.19271 8.58594 2.99219C8.34896 2.77344 8.16667 2.61849 8.03906 2.52734C7.91146 2.4362 7.73828 2.33594 7.51953 2.22656C7.31901 2.11719 7.14583 2.0625 7 2.0625C6.85417 2.0625 6.67188 2.11719 6.45312 2.22656C6.2526 2.33594 6.08854 2.4362 5.96094 2.52734C5.83333 2.60026 5.64193 2.74609 5.38672 2.96484C5.14974 3.18359 5.02214 3.29297 5.00391 3.29297C4.14714 3.96745 2.9349 4.94271 1.36719 6.21875C1.33073 6.23698 1.3125 6.27344 1.3125 6.32812V13.2734C1.3125 13.3828 1.36719 13.4375 1.47656 13.4375H12.5234C12.6328 13.4375 12.6875 13.3828 12.6875 13.2734ZM11.8125 8.13281C11.9583 8.3151 11.9401 8.47005 11.7578 8.59766C10.7552 9.41797 10.1081 9.9375 9.81641 10.1562C9.76172 10.2109 9.65234 10.3112 9.48828 10.457C9.32422 10.5846 9.1875 10.694 9.07812 10.7852C8.96875 10.8763 8.8138 10.9857 8.61328 11.1133C8.43099 11.2409 8.25781 11.3411 8.09375 11.4141C7.94792 11.487 7.77474 11.5508 7.57422 11.6055C7.3737 11.6602 7.18229 11.6875 7 11.6875C6.78125 11.6875 6.55339 11.6602 6.31641 11.6055C6.09766 11.5326 5.86979 11.4232 5.63281 11.2773C5.41406 11.1315 5.24089 11.013 5.11328 10.9219C4.98568 10.8307 4.80339 10.694 4.56641 10.5117C4.32943 10.3112 4.20182 10.1927 4.18359 10.1562C3.89193 9.9375 3.24479 9.41797 2.24219 8.59766C2.0599 8.47005 2.04167 8.3151 2.1875 8.13281L2.59766 7.64062C2.74349 7.47656 2.89844 7.45833 3.0625 7.58594C4.0651 8.38802 4.71224 8.90755 5.00391 9.14453C5.02214 9.14453 5.14974 9.25391 5.38672 9.47266C5.64193 9.67318 5.83333 9.81901 5.96094 9.91016C6.08854 10.0013 6.2526 10.1016 6.45312 10.2109C6.67188 10.3203 6.85417 10.375 7 10.375C7.10938 10.375 7.21875 10.3568 7.32812 10.3203C7.45573 10.2656 7.57422 10.2109 7.68359 10.1562C7.79297 10.0833 7.91146 10.0013 8.03906 9.91016C8.1849 9.80078 8.30339 9.70964 8.39453 9.63672C8.50391 9.5638 8.61328 9.47266 8.72266 9.36328C8.85026 9.25391 8.94141 9.18099 8.99609 9.14453C9.28776 8.90755 9.9349 8.38802 10.9375 7.58594C11.1016 7.45833 11.2565 7.47656 11.4023 7.64062L11.8125 8.13281Z" fill="#F2C94C"/>
</svg>
